<?xml version="1.0" encoding="UTF-8"?>
<svg id="Capa_1" data-name="Capa 1" xmlns="http://www.w3.org/2000/svg" viewBox="0 0 1000 1000">
  <defs>
    <style>
      .cls-1 {
        fill: none;
        stroke: #ff688b;
        stroke-width: 2.83px;
      }

      .cls-1, .cls-2 {
        stroke-miterlimit: 10;
      }

      .cls-3 {
        fill: #ff688b;
        stroke-width: 0px;
      }

      .cls-2 {
        fill: #000;
        stroke: #000;
        stroke-width: 1px;
      }
    </style>
  </defs>
  <rect class="cls-2" x="-.5" y="-.5" width="1001" height="1001"/>
  <g>
    <path class="cls-3" d="M675.21,651.34c-5.4,34.4-45.35,51.68-72.98,29.96-30.68-24.13-40.84-59.54-50.53-96.52,0,0-5.12-22.7-6.32-30.09-9.29-57.24-9.53-114.65-3.08-172.18,7.99-71.24,28.85-139.49,48.26-208.08,2.3-8.13,5.88-16.81,4.84-24.7-.49-3.68-2-7.97-4.14-11.67-.81-.89-1.47-1.91-1.99-3.01-1.7-2.25-3.64-4.06-5.7-5.02-4.67-2.18-15.31,2.8-20.02,7.74-6.62,6.93-11.44,16.31-14.85,25.45-7.25,19.43-14.55,39.04-19.27,59.18-20.41,87.09-48.09,171.87-79.64,255.43-12.46,33-26.87,65.26-41.11,99.59-25.02-8.06-48.17-15.88-71.55-22.95-28.43-8.6-56.58-19.48-85.69-24.17-52.17-8.4-99.02,5.02-133.24,47.74-35.06,43.76-41.87,93.31-22.08,145.44,23.19,61.09,75.51,85.21,137,64.69,30.06-10.03,57.7-25.23,78.2-49.33,22.24-26.13,42.67-54.03,61.53-82.71,14.96-22.75,26.35-47.84,37.59-68.67.09,0,1.25-2.75,3.26-7.73,13.83-34.31,68.14-174.15,94.57-244.96-6.69,82.16,22.28,265.27,23.33,268.41,8.8,26.52,19.25,52.43,40.21,72.31,29.93,28.41,78.91,27.99,107.51-1.59,4.95-5.13,8.48-12.71,9.97-19.73.97-4.57-2.92-10.17-4.64-15.31-3.26,4.14-8.72,7.94-9.43,12.49ZM342.53,693.04c-.47.84-1.03,1.63-1.67,2.37-18.98,26.61-41.52,50.37-71.21,68.62-19.24,11.82-41.89,20.96-64.08,24.56-52.82,8.56-99.98-30.89-110.8-88.66-18.94-101.21,58.2-181.19,159.39-162.87.28.05.55.11.83.16,1.84.04,3.65.38,5.32,1.03,32.37,6.64,63.7,19.02,95.51,28.66,16.15,4.89,31.55,9.61,49.27,15.19-20.18,37.85-38.54,76.68-62.57,110.96Z"/>
    <path class="cls-3" d="M799.42,666.49c-5.4,34.4-45.35,51.68-72.98,29.96-30.67-24.12-40.84-59.54-50.53-96.52,0,0-5.12-22.7-6.32-30.09-9.29-57.24-9.53-114.65-3.08-172.18,7.99-71.24,28.85-139.49,48.26-208.08,2.3-8.13,5.88-16.81,4.84-24.7-.97-7.27-5.91-16.94-11.83-19.7-3.97-1.85-12.26,1.48-17.55,5.56-.43.43-.92.8-1.42,1.17-.38.34-.73.68-1.06,1.01-6.62,6.93-11.44,16.31-14.85,25.45-7.25,19.43-14.55,39.04-19.27,59.18-20.41,87.09-48.09,171.87-79.64,255.43-11.12,29.44-23.79,58.31-36.51,88.57,2.29,2.15,4.22,4.53,5.85,7.13,29.84-79.95,59.42-159.18,89.13-238.76-6.78,83.25,21.89,264.08,23.33,268.41,8.8,26.52,19.25,52.43,40.21,72.31,29.93,28.41,78.91,27.99,107.51-1.59,4.95-5.13,8.48-12.71,9.97-19.73.97-4.57-13.36-7.37-14.07-2.82Z"/>
    <path class="cls-1" d="M248.95,459.31c.47-47.44,10.57-96.12,31.97-138.64,24.14-47.98,59.68-90.19,102.78-122.22,24.44-18.16,51.33-33.03,79.82-43.78"/>
    <path class="cls-1" d="M790,206.17c48.27,39.45,85.56,92.1,106.31,150.92,22.22,62.99,24.67,131.66,6.24,195.9-17.2,59.98-51.24,114.97-97.55,156.82-46.72,42.22-105.1,70.62-167.13,81.4-35.15,6.11-71.46,6.98-106.72,1.17-34.58-5.69-67.48-18.06-99.55-31.83-7.7-3.31-15.44-6.58-22.8-10.6"/>
    <path class="cls-1" d="M692.7,150.99c8.4,3.01,16.67,6.36,24.79,10.05"/>
    <g>
      <path class="cls-3" d="M419.23,848.11c0,6.55-5.8,11.18-13.98,11.18-6.96,0-12.21-3.48-15-10.02l-.07-2.66c3.07,7.98,7.84,12,14.39,12,6,0,9.89-3.55,9.89-9,0-12.34-22.16-14.93-22.16-28.3,0-5.8,5.25-10.09,12.34-10.09,6.48,0,11.32,2.66,13.57,7.43v1.98h-.14c-2.52-5.73-6.89-8.73-12.96-8.73-4.84,0-8.05,2.86-8.05,7.16,0,12.68,22.16,14.32,22.16,29.05Z"/>
      <path class="cls-3" d="M423.93,828.67c0-1.7-.82-2.52-2.66-2.52v-.68c2.8,0,4.3-3.27,4.3-9.21h3.27c0,5.39-1.57,8.12-4.23,9.21h6.55v.68h-3.48v26.46c0,3.27,1.16,5.05,3.41,5.05s4.09-2.86,5.25-8.46h.48c-1.5,7.09-3.55,9.75-7.5,9.75-3.34,0-5.39-2.59-5.39-6.89v-23.39Z"/>
      <path class="cls-3" d="M439.55,828.4c0-1.3-.48-2.18-1.36-2.52v-.14l5.11-.89v20.6c0,8.05,2.73,12.34,7.84,12.34s8.46-4.71,8.46-11.8v-17.59c0-1.3-.48-2.18-1.36-2.52v-.14l5.11-.89v30.55c0,2.05.75,3.14,2.25,3.34v.2h-5.46c-.34,0-.54-.2-.54-.55v-7.3c-1.43,4.91-4.91,7.98-9.62,7.98-6.48,0-10.43-4.64-10.43-12.28v-18.41Z"/>
      <path class="cls-3" d="M488.99,811.49l5.11-.89v44.81c0,2.05.75,3.14,2.25,3.34v.2h-4.71c-.89,0-1.29-.48-1.29-1.64v-9.41c-1.5,6.61-5.39,11.05-10.23,11.05-7.3,0-12.48-6.34-12.48-15.21,0-10.16,8.25-18.89,17.73-18.89,1.91,0,3.61.41,4.98,1.02v-11.73c0-1.3-.48-2.18-1.36-2.52v-.14ZM490.35,826.76c-1.23-.75-2.86-1.23-4.64-1.23-7.77,0-13.98,8.05-13.98,18.21,0,7.98,4.09,14.05,9.48,14.05s9.14-7.16,9.14-17.19v-13.84Z"/>
      <path class="cls-3" d="M505.08,855.41c0,2.05.75,3.14,2.25,3.34v.2h-8.25v-.2c1.5-.2,2.25-1.3,2.25-3.34v-27.01c0-1.3-.48-2.18-1.36-2.52v-.14l5.11-.89v30.55ZM502.49,816.06c1.43,0,2.59,1.23,2.59,2.66s-1.16,2.66-2.59,2.66-2.66-1.23-2.66-2.66,1.16-2.66,2.66-2.66Z"/>
      <path class="cls-3" d="M523.29,824.17c7.84,0,14.05,7.91,14.05,17.8s-6.27,17.66-14.05,17.66-13.91-7.91-13.91-17.66,6.21-17.8,13.91-17.8ZM523.35,858.95c5.46,0,9.89-7.57,9.89-16.98s-4.43-17.12-9.89-17.12-9.89,7.57-9.89,17.12,4.36,16.98,9.89,16.98Z"/>
      <path class="cls-3" d="M568.9,811.21c12.55,0,21.96,10.16,21.96,23.87s-9.41,23.87-21.96,23.87h-11.8v-.2c1.5-.2,2.25-1.3,2.25-3.34v-40.65c0-2.05-.75-3.14-2.25-3.34v-.2h11.8ZM563.45,858.27h4.71c10.37,0,17.94-9.75,17.94-23.19s-7.57-23.19-17.94-23.19h-4.71v46.37Z"/>
      <path class="cls-3" d="M606.82,841.42c8.66,1.36,13.37,4.71,13.37,9.75s-4.36,8.46-10.23,8.46c-8.93,0-16.03-7.84-16.03-17.73,0-10.43,5.93-17.73,14.53-17.73,6.14,0,11.25,3.96,11.25,8.73,0,5.46-4.64,8.52-12.82,8.52h-.07ZM606.48,840.74c6.41,0,9.82-2.66,9.82-7.57s-3.34-8.32-7.84-8.32c-5.86,0-10.09,6.55-10.43,15.89h8.46ZM598.02,841.9c0,9.82,5.52,16.85,13.23,16.85,4.57,0,8.25-3.41,8.25-7.57,0-6.27-7.5-9.68-21.48-9.75v.48Z"/>
      <path class="cls-3" d="M634.16,824.51c7.23,0,10.71,5.05,10.71,5.05v1.5h-.14s-3.07-5.87-9.96-5.87c-3.27,0-5.73,2.32-5.73,5.39,0,9.27,15.82,11.18,15.82,20.32,0,4.91-4.23,8.39-10.23,8.39-7.98,0-11.73-7.09-11.73-7.09v-1.5h.14s3.61,7.91,10.84,7.91c3.96,0,6.89-2.52,6.89-6,0-8.05-15.82-11.12-15.82-19.91,0-4.57,4.02-8.18,9.21-8.18Z"/>
      <path class="cls-3" d="M653.6,855.41c0,2.05.75,3.14,2.25,3.34v.2h-8.25v-.2c1.5-.2,2.25-1.3,2.25-3.34v-27.01c0-1.3-.48-2.18-1.36-2.52v-.14l5.11-.89v30.55ZM651,816.06c1.43,0,2.59,1.23,2.59,2.66s-1.16,2.66-2.59,2.66-2.66-1.23-2.66-2.66,1.16-2.66,2.66-2.66Z"/>
      <path class="cls-3" d="M686.94,817.01c1.57,3.89-.14,7.91-4.09,9.48-1.16.48-2.32.61-3.61.48,3.14,2.66,5.11,6.89,5.11,11.66,0,7.91-5.59,14.32-12.55,14.32-6.07,0-9.14,1.71-9.14,4.91,0,1.84,1.64,3,4.23,3,6.41,0,10.78-6.27,14.87-6.27,3.07,0,5.46,2.11,5.46,4.91,0,3.55-3.34,6-8.12,6-2.05,0-4.84-1.57-6.89-3.89l.07-.14c2.59,2.46,4.57,3.48,6.55,3.48,2.46,0,4.3-1.91,4.3-4.64,0-2.32-1.16-3.82-3.07-3.82-3.82,0-9.07,6.27-15.62,6.27-3.27,0-5.86-1.84-5.86-4.09,0-3.27,4.5-5.86,10.09-6.21-5.32-1.64-9.21-7.23-9.21-13.84,0-7.98,5.52-14.46,12.34-14.46,2.25,0,4.3.68,6.14,1.84.48.14.95.14,1.5.14.75,0,1.5-.14,2.25-.41,2.86-1.16,3.61-3.75,2.11-7.43l3.14-1.3ZM671.8,852.27c4.64,0,8.46-6.14,8.46-13.64s-3.96-13.78-8.52-13.78-8.18,5.52-8.18,13.09,3.61,14.32,8.25,14.32Z"/>
      <path class="cls-3" d="M696.28,824.85v7.84c1.43-4.91,4.91-7.98,9.62-7.98,6.48,0,10.43,4.64,10.43,12.28v18.41c0,2.05.75,3.14,2.25,3.34v.2h-8.25v-.2c1.5-.2,2.25-1.3,2.25-3.34v-17.05c0-8.05-2.73-12.34-7.84-12.34s-8.46,4.71-8.46,11.8v17.6c0,2.05.75,3.14,2.25,3.34v.2h-8.25v-.2c1.5-.2,2.25-1.3,2.25-3.34v-27.01c0-1.3-.48-2.18-1.36-2.52v-.14l5.11-.89Z"/>
    </g>
    <path class="cls-3" d="M539.96,585.37c15.03-3.58,30.16-6.99,45.52-8.86,15.05-1.83,30.93-2.77,45.66,1.5,3.69,1.07,7.27,2.4,10.63,4.27,1.64.91,3.31,1.82,4.81,2.96.83.63,1.51,1.52,2.43,2.02,1.98,1.07-.44-.64.46.24.26.26.69.45.91.74.94,1.24,2.49,1.89,3.95,1.04,1.22-.72,1.98-2.7,1.04-3.95-.56-.73-1.1-1.32-1.81-1.9-.36-.3-.71-.66-1.11-.91-.19-.12-.37-.19-.58-.29-.85-.38.23.37-.06-.09-.46-.73-1.71-1.44-2.4-1.94-.74-.54-1.52-1.04-2.31-1.52-3.21-1.93-6.64-3.67-10.19-4.89-7.66-2.62-15.58-3.97-23.65-4.38-16.16-.82-32.29,1.68-48.13,4.59-8.97,1.64-17.84,3.69-26.71,5.8-3.61.86-2.08,6.43,1.54,5.57h0Z"/>
    <path class="cls-3" d="M404.29,581.92c7.37,3.49,15.71,1.17,23.36-.01,8.16-1.26,16.35-2.39,24.56-3.28,16.6-1.79,33.36-2.57,50.03-1.28,8.37.65,17.2,1.47,24.71,5.54,3.05,1.65,5.78-3,2.72-4.66-6.89-3.73-14.61-5.02-22.32-5.81-8.26-.86-16.57-1.18-24.88-1.09-16.82.18-33.57,2.04-50.21,4.47-4.61.67-9.21,1.44-13.82,2.13-3.72.56-7.93,1-11.44-.67-1.32-.62-2.91-.37-3.69.97-.69,1.17-.35,3.06.97,3.69h0Z"/>
  </g>
  <rect class="cls-2" x="-.5" y="999.5" width="1001" height="1001"/>
</svg>